Coordinates
version=1
nRows=9
nColumns=63
inDegrees=yes

Units are S.I. units (second, meters, Newtons, ...)
If the header above contains a line with 'inDegrees', this indicates whether rotational values are in degrees (yes) or radians (no).

endheader
time	pelvis_tilt	pelvis_list	pelvis_rotation	pelvis_tx	pelvis_ty	pelvis_tz	hip_flexion_r	hip_adduction_r	hip_rotation_r	knee_angle_r	knee_angle_r_beta	ankle_angle_r	subtalar_angle_r	mtp_angle_r	hip_flexion_l	hip_adduction_l	hip_rotation_l	knee_angle_l	knee_angle_l_beta	ankle_angle_l	subtalar_angle_l	mtp_angle_l	L5_S1_Flex_Ext	L5_S1_Lat_Bending	L5_S1_axial_rotation	L4_L5_Flex_Ext	L4_L5_Lat_Bending	L4_L5_axial_rotation	L3_L4_Flex_Ext	L3_L4_Lat_Bending	L3_L4_axial_rotation	L2_L3_Flex_Ext	L2_L3_Lat_Bending	L2_L3_axial_rotation	L1_L2_Flex_Ext	L1_L2_Lat_Bending	L1_L2_axial_rotation	L1_T12_Flex_Ext	L1_T12_Lat_Bending	L1_T12_axial_rotation	Abs_r3	Abs_r2	Abs_r1	Abs_t1	Abs_t2	neck_flexion	neck_bending	neck_rotation	arm_flex_r	arm_add_r	arm_rot_r	elbow_flex_r	pro_sup_r	wrist_flex_r	wrist_dev_r	arm_flex_l	arm_add_l	arm_rot_l	elbow_flex_l	pro_sup_l	wrist_flex_l	wrist_dev_l
      4.02439024	     -6.07223209	     -6.91523549	    115.14705667	      0.17821338	      0.34546503	      0.65824925	     -8.58746711	     -4.20987303	    -20.64932557	      9.31323856	      0.16254668	     22.39209392	     -6.52954255	      0.00000000	     -6.62852658	      6.13043498	      7.41323593	      4.54324675	      0.07929461	     23.45580028	     -0.45498163	      0.00000000	      0.09144877	     -0.70211835	     -1.63394876	      0.16982951	     -0.93381740	     -1.73607056	      0.15024119	     -1.70713055	     -1.73607056	      0.10451680	     -1.70713055	     -1.42970516	      0.08491933	     -1.43175973	     -1.32758337	      0.05225383	     -1.08758132	     -1.22546157	      0.65320943	     -7.94250316	     -9.08753281	      0.00000000	      0.00000000	     18.66903488	     23.19992955	    -28.89090401	     19.90682151	     -4.71249602	     68.67671319	     65.19918715	     79.87562462	     -2.43292947	     -3.65614765	     13.49729369	    -13.34416353	     53.71051827	     37.30598139	     78.60528429	     -4.69424465	     -1.95138219
      4.04878049	     -6.00141641	     -6.79814093	    114.93069049	      0.17863577	      0.34552334	      0.65846998	     -8.56286884	     -4.13910614	    -20.94562642	      9.41957635	      0.16440262	     22.62725538	     -5.68223141	      0.00000000	     -6.61390607	      5.96431655	      5.80294056	      4.75820487	      0.08304634	     23.97132006	      1.56528609	      0.00000000	      0.06920250	     -0.69051426	     -1.60816286	      0.12851596	     -0.91838397	     -1.70867304	      0.11369278	     -1.67891637	     -1.70867304	      0.07909153	     -1.67891637	     -1.40714251	      0.06426144	     -1.40809668	     -1.30663233	      0.03954231	     -1.06960659	     -1.20612215	      0.49430652	     -7.81123541	     -8.94411940	      0.00000000	      0.00000000	     18.86073071	     23.47097300	    -28.98857830	     20.21090766	     -4.59575147	     69.01226893	     64.56397137	     78.99272485	     -2.41585007	     -3.56797516	     13.60718390	    -13.28872156	     53.46441883	     37.37590753	     77.41911065	     -5.28011694	     -2.52454641
      4.07317073	     -5.92838334	     -6.87321475	    114.58229163	      0.17912495	      0.34533418	      0.65862920	     -8.24935021	     -4.24256422	    -21.06639056	      9.68528823	      0.16904017	     23.17695579	     -4.52432943	      0.00000000	     -6.47359920	      5.98794985	      6.26261006	      4.86794355	      0.08496164	     23.81305045	      0.49069847	      0.00000000	      0.08315223	     -0.68860719	     -1.51482145	      0.15442201	     -0.91584756	     -1.60949779	      0.13661080	     -1.67427951	     -1.60949779	      0.09503469	     -1.67427951	     -1.32546877	      0.07721516	     -1.40420778	     -1.23079243	      0.04751318	     -1.06665253	     -1.13611609	      0.59394807	     -7.78966222	     -8.42498247	      0.00000000	      0.00000000	     18.89215254	     23.65262941	    -29.33375986	     20.05777044	     -4.59031542	     68.09703353	     64.12523096	     82.78228017	     -2.18744404	     -3.49530091	     14.11405198	    -13.27418998	     53.46413546	     37.15095397	     84.14887740	     -5.08497646	     -3.23030696
      4.09756098	     -5.90458801	     -6.72657662	    114.19541046	      0.17960961	      0.34547535	      0.65846383	     -8.32611449	     -4.22563216	    -20.86470083	      9.61767186	      0.16786004	     23.63207617	     -3.68519063	      0.00000000	     -6.78506113	      5.93815402	      6.43574386	      4.57586253	      0.07986387	     23.54705419	     -0.06961290	      0.00000000	      0.06984778	     -0.68130657	     -1.43851360	      0.12971431	     -0.90613774	     -1.52842070	      0.11475292	     -1.65652879	     -1.52842070	      0.07982903	     -1.65652879	     -1.25869940	      0.06486065	     -1.38932036	     -1.16879230	      0.03991102	     -1.05534388	     -1.07888520	      0.49891572	     -7.70707617	     -8.00058107	      0.00000000	      0.00000000	     18.88605359	     23.59186059	    -29.55010341	     20.20296606	     -4.60171604	     68.07529279	     63.65903249	     83.91728843	     -2.83549262	     -4.06698710	     14.32336556	    -13.34897743	     53.65004405	     37.17986426	     84.85380320	     -5.08462642	     -3.63437438
      4.12195122	     -5.65254358	     -6.74773234	    113.28222021	      0.18058682	      0.34527003	      0.65855825	     -7.81623775	     -4.26383580	    -20.34820642	      9.96668139	      0.17395141	     24.17064058	     -2.72630565	      0.00000000	     -6.62704453	      5.81516480	      5.36331929	      4.63054712	      0.08081829	     23.70577238	      0.19348331	      0.00000000	      0.09151273	     -0.64843240	     -1.28238077	      0.16994829	     -0.86241509	     -1.36252957	      0.15034626	     -1.57659854	     -1.36252957	      0.10458990	     -1.57659854	     -1.12208317	      0.08497872	     -1.32228335	     -1.04193437	      0.05229037	     -1.00442179	     -0.96178558	      0.65366626	     -7.33519701	     -7.13221711	      0.00000000	      0.00000000	     19.31092575	     23.59716148	    -29.44753986	     20.49080315	     -4.84825441	     68.06276265	     63.55602278	     85.86275847	     -3.30042514	     -4.02985937	     14.41543735	    -13.24312024	     53.34387232	     37.19577224	     85.75597247	     -4.41153320	     -3.03067347
      4.14634146	     -5.38286862	     -6.71083675	    112.60438679	      0.18101269	      0.34520705	      0.65861649	     -7.54614951	     -4.21219911	    -20.45788468	     10.07192799	      0.17578831	     24.53374153	     -1.39924277	      0.00000000	     -6.73721128	      5.72308727	      6.74180362	      4.28186129	      0.07473258	     23.14985397	     -2.64949693	      0.00000000	      0.10071527	     -0.60375178	     -1.23459139	      0.18703834	     -0.80298986	     -1.31175336	      0.16546512	     -1.46796207	     -1.31175336	      0.11510749	     -1.46796207	     -1.08026747	      0.09352420	     -1.23117062	     -1.00310551	      0.05754871	     -0.93521150	     -0.92594355	      0.71939913	     -6.82976084	     -6.86642696	      0.00000000	      0.00000000	     19.87037731	     23.30263230	    -28.96410058	     21.09783616	     -5.02607166	     68.49801369	     63.17711199	     86.76597563	     -3.00147187	     -3.41396680	     13.77552772	    -13.18650299	     51.50821595	     37.66748479	     85.16631195	     -3.39496790	     -1.85669079
      4.17073171	     -5.07734538	     -6.74935827	    111.85111918	      0.18159940	      0.34520803	      0.65866848	     -7.15401588	     -4.08306305	    -19.71307700	     10.18479544	      0.17775821	     24.40174869	     -1.42879011	      0.00000000	     -6.66304822	      5.57977364	      6.71894343	      4.09948023	      0.07154943	     22.97411659	     -3.63765993	      0.00000000	      0.11763134	     -0.55498801	     -1.20459096	      0.21845317	     -0.73813406	     -1.27987789	      0.19325653	     -1.34939785	     -1.27987789	      0.13444086	     -1.34939785	     -1.05401709	      0.10923247	     -1.13173156	     -0.97873015	      0.06721455	     -0.85967643	     -0.90344322	      0.84022892	     -6.27813540	     -6.69957352	      0.00000000	      0.00000000	     20.60725911	     22.90201571	    -28.23979146	     21.55846683	     -5.03793320	     68.50394938	     62.27978642	     87.28645497	     -1.62556181	     -1.94589649	     12.79864328	    -13.21869334	     49.53900250	     38.33751479	     83.40851635	     -2.62004999	     -0.56345422
      4.19512195	     -4.71529908	     -6.92024471	    111.14627434	      0.18208812	      0.34505613	      0.65886108	     -6.54571343	     -4.00670444	    -19.38533661	     10.51585757	      0.18353634	     24.35124734	     -1.05574375	      0.00000000	     -6.33206850	      5.42216737	      6.16294823	      4.10174994	      0.07158904	     23.00920699	     -3.93236567	      0.00000000	      0.15029585	     -0.50353805	     -1.20498622	      0.27911442	     -0.66970561	     -1.28029786	      0.24692105	     -1.22430242	     -1.28029786	      0.17177313	     -1.22430242	     -1.05436295	      0.13956473	     -1.02681479	     -0.97905131	      0.08587905	     -0.77998044	     -0.90373967	      1.07354823	     -5.69612314	     -6.70177188	      0.00000000	      0.00000000	     21.41216717	     22.37158733	    -27.45915599	     21.77459428	     -4.96003908	     68.02703617	     61.02673161	     87.42105832	      0.12434166	      0.16876679	     11.69956576	    -13.38962296	     47.95690309	     39.16550010	     81.97571212	     -2.21366388	      0.52077484
      4.21951220	     -4.41735206	     -6.98710916	    110.87305930	      0.18226625	      0.34535267	      0.65909576	     -6.23297867	     -3.83043507	    -19.25973746	     10.64898093	      0.18585978	     24.15724674	     -0.87044142	      0.00000000	     -6.17891805	      5.21260878	      5.92363494	      4.00937673	      0.06997682	     22.91990491	     -4.04382626	      0.00000000	      0.15933753	     -0.46509272	     -1.25950650	      0.29590572	     -0.61857332	     -1.33822565	      0.26177562	     -1.13082644	     -1.33822565	      0.18210686	     -1.13082644	     -1.10206819	      0.14796083	     -0.94841707	     -1.02334903	      0.09104546	     -0.72042862	     -0.94462987	      1.13813203	     -5.26122186	     -7.00499729	      0.00000000	      0.00000000	     22.10289232	     21.85079638	    -27.26994908	     21.78956017	     -4.71361088	     67.39957241	     59.01784200	     87.24675139	      0.10120622	      1.00367866	     11.17716161	    -13.50933585	     47.91183738	     39.16795123	     81.82869358	     -2.17050325	      0.71431098
